<?xml version="1.0" encoding="utf-8"?>
<!-- Generator: Adobe Illustrator 16.0.0, SVG Export Plug-In . SVG Version: 6.00 Build 0)  -->
<!DOCTYPE svg PUBLIC "-//W3C//DTD SVG 1.1//EN" "http://www.w3.org/Graphics/SVG/1.1/DTD/svg11.dtd">
<svg version="1.1" id="Layer_1" xmlns="http://www.w3.org/2000/svg" xmlns:xlink="http://www.w3.org/1999/xlink" x="0px" y="0px"
	 width="283.465px" height="283.465px" viewBox="0 0 283.465 283.465" enable-background="new 0 0 283.465 283.465"
	 xml:space="preserve">
<g>
	<path d="M244.07,184.287l0.359,1.077c0.477,29.807-7.932,52.402-25.228,67.783c-17.3,15.383-41.809,23.072-73.528,23.072
		c-32.32,0-58.266-9.875-77.838-29.626c-19.572-19.752-29.357-45.607-29.357-77.568v-54.586c0-31.84,9.427-57.665,28.28-77.479
		c18.854-19.81,43.78-29.716,74.785-29.716c33.156,0,58.805,7.721,76.94,23.162c18.135,15.442,26.961,37.887,26.484,67.334
		l-0.539,1.077h-59.074c0-16.039-3.412-27.531-10.234-34.475c-6.823-6.941-18.018-10.414-33.577-10.414
		c-13.646,0-24.122,5.477-31.423,16.429c-7.303,10.953-10.953,25.528-10.953,43.723v54.944c0,18.314,4.01,32.979,12.031,43.991
		c8.018,11.015,19.51,16.519,34.475,16.519c13.885,0,23.908-3.47,30.076-10.414c6.163-6.94,9.246-18.553,9.246-34.834H244.07z"/>
</g>
</svg>
