<?xml version="1.0" encoding="utf-8"?>
<!-- Generator: Adobe Illustrator 16.0.0, SVG Export Plug-In . SVG Version: 6.00 Build 0)  -->
<!DOCTYPE svg PUBLIC "-//W3C//DTD SVG 1.1//EN" "http://www.w3.org/Graphics/SVG/1.1/DTD/svg11.dtd">
<svg version="1.1" id="Layer_1" xmlns="http://www.w3.org/2000/svg" xmlns:xlink="http://www.w3.org/1999/xlink" x="0px" y="0px"
	 width="283.465px" height="283.465px" viewBox="0 0 283.465 283.465" enable-background="new 0 0 283.465 283.465"
	 xml:space="preserve">
<text transform="matrix(1 0 0 1 17.1729 -61.8135)" font-family="'MyriadPro-Regular'" font-size="351.36">OFF</text>
<g>
	<rect x="85.485" y="24.046" fill="#FFFFFF" width="112.494" height="80.354"/>
	<path d="M194.979,27.046V101.4H88.485V27.046H194.979 M200.979,21.046H82.485V107.4h118.494V21.046L200.979,21.046z"/>
</g>
<g>
	<rect x="114.098" y="205.932" fill="#FFFFFF" width="55.27" height="55.27"/>
	<path d="M166.367,208.932v49.27h-49.27v-49.27H166.367 M172.367,202.932h-61.27v61.27h61.27V202.932L172.367,202.932z"/>
</g>
<g>
	<rect x="208.195" y="205.932" fill="#FFFFFF" width="55.27" height="55.27"/>
	<path d="M260.465,208.932v49.27h-49.27v-49.27H260.465 M266.465,202.932h-61.27v61.27h61.27V202.932L266.465,202.932z"/>
</g>
<g>
	<rect x="20" y="205.932" fill="#FFFFFF" width="55.27" height="55.27"/>
	<path d="M72.27,208.932v49.27H23v-49.27H72.27 M78.27,202.932H17v61.27h61.27V202.932L78.27,202.932z"/>
</g>
<line fill="none" stroke="#000000" stroke-width="6" stroke-miterlimit="10" x1="141.732" y1="102.82" x2="49.214" y2="206.732"/>
<line fill="none" stroke="#000000" stroke-width="6" stroke-miterlimit="10" x1="141.732" y1="102.82" x2="234.251" y2="206.732"/>
<line fill="none" stroke="#000000" stroke-width="6" stroke-miterlimit="10" x1="141.732" y1="107.4" x2="141.732" y2="204.449"/>
</svg>
