<?xml version="1.0" encoding="utf-8"?>
<!-- Generator: Adobe Illustrator 16.0.0, SVG Export Plug-In . SVG Version: 6.00 Build 0)  -->
<!DOCTYPE svg PUBLIC "-//W3C//DTD SVG 1.1//EN" "http://www.w3.org/Graphics/SVG/1.1/DTD/svg11.dtd">
<svg version="1.1" id="Layer_1" xmlns="http://www.w3.org/2000/svg" xmlns:xlink="http://www.w3.org/1999/xlink" x="0px" y="0px"
	 width="283.465px" height="283.465px" viewBox="0 0 283.465 283.465" enable-background="new 0 0 283.465 283.465"
	 xml:space="preserve">
<g>
	<path d="M126.575,193.795h151.027c0-41.917-27.846-68.613-63.32-80.102c-10.821,10.871-25.797,17.601-42.348,17.601
		s-31.526-6.73-42.348-17.601c-8.4,2.721-16.365,6.305-23.642,10.732h20.63V193.795z"/>
	<circle cx="171.935" cy="71.541" r="52.884"/>
</g>
<g>
	<path d="M115.991,136.066v121.499H27.101V136.066H115.991 M121.991,130.066H21.101v133.499h100.891V130.066L121.991,130.066z"/>
</g>
<g>
	<rect x="30.991" y="148.244" width="81.109" height="13"/>
</g>
<g>
	<rect x="30.991" y="176.684" width="81.109" height="13"/>
</g>
<g>
	<rect x="30.991" y="205.125" width="81.109" height="13"/>
</g>
<g>
	<rect x="30.991" y="233.564" width="81.109" height="13"/>
</g>
</svg>
