<?xml version="1.0" encoding="utf-8"?>
<!-- Generator: Adobe Illustrator 16.0.0, SVG Export Plug-In . SVG Version: 6.00 Build 0)  -->
<!DOCTYPE svg PUBLIC "-//W3C//DTD SVG 1.1//EN" "http://www.w3.org/Graphics/SVG/1.1/DTD/svg11.dtd">
<svg version="1.1" id="Layer_1" xmlns="http://www.w3.org/2000/svg" xmlns:xlink="http://www.w3.org/1999/xlink" x="0px" y="0px"
	 width="283.465px" height="283.465px" viewBox="0 0 283.465 283.465" enable-background="new 0 0 283.465 283.465"
	 xml:space="preserve">
<g>
	<g>
		<path fill="#FFFFFF" d="M129.075,191.795v-69.37h-14.942c4.862-2.482,10.021-4.642,15.42-6.45
			c11.571,11.179,26.75,17.319,42.882,17.319s31.311-6.141,42.882-17.32c37.944,12.69,59.97,40.202,60.764,75.821H129.075z"/>
		<path d="M215.816,118.256c35.669,12.32,56.646,38.16,58.194,71.539H131.075v-65.37v-4h-4h-3.772
			c1.883-0.769,3.801-1.491,5.752-2.167c11.828,11.005,27.137,17.037,43.38,17.037C188.68,135.294,203.987,129.263,215.816,118.256
			 M214.782,113.693c-10.821,10.871-25.797,17.601-42.348,17.601s-31.526-6.73-42.348-17.601c-8.4,2.721-16.365,6.305-23.642,10.732
			h20.63v69.37h151.027C278.103,151.878,250.257,125.182,214.782,113.693L214.782,113.693z"/>
	</g>
	<g>
		<path fill="#FFFFFF" d="M172.435,122.425c-28.058,0-50.885-22.826-50.885-50.884s22.827-50.884,50.885-50.884
			c28.059,0,50.886,22.827,50.886,50.884S200.493,122.425,172.435,122.425z"/>
		<path d="M172.435,22.657c26.956,0,48.886,21.929,48.886,48.884c0,26.955-21.93,48.884-48.886,48.884
			c-26.955,0-48.885-21.929-48.885-48.884C123.55,44.586,145.479,22.657,172.435,22.657 M172.435,18.657
			c-29.208,0-52.885,23.678-52.885,52.884c0,29.208,23.677,52.884,52.885,52.884s52.886-23.676,52.886-52.884
			C225.32,42.334,201.643,18.657,172.435,18.657L172.435,18.657z"/>
	</g>
</g>
<g>
	<path d="M116.491,136.066v121.499H27.601V136.066H116.491 M122.491,130.066H21.601v133.499h100.891V130.066L122.491,130.066z"/>
</g>
</svg>
