<?xml version="1.0" encoding="utf-8"?>
<!-- Generator: Adobe Illustrator 16.0.0, SVG Export Plug-In . SVG Version: 6.00 Build 0)  -->
<!DOCTYPE svg PUBLIC "-//W3C//DTD SVG 1.1//EN" "http://www.w3.org/Graphics/SVG/1.1/DTD/svg11.dtd">
<svg version="1.1" id="Layer_1" xmlns="http://www.w3.org/2000/svg" xmlns:xlink="http://www.w3.org/1999/xlink" x="0px" y="0px"
	 width="283.465px" height="283.465px" viewBox="0 0 283.465 283.465" enable-background="new 0 0 283.465 283.465"
	 xml:space="preserve">
<path d="M261.408,56.399v170.665h-238V56.399H261.408 M273.408,44.399h-262v194.665h262V44.399L273.408,44.399z"/>
<g>
	<path fill="#FFFFFF" d="M107.5,194.069c-7.154,0-11.426-5.646-11.426-15.102v-74.472c0-9.689,4.499-15.474,12.034-15.474
		c2.759,0,5.759,0.769,8.919,2.284l82.438,39.534c5.507,2.641,8.815,6.085,8.85,9.213c0.035,3.128-3.196,6.645-8.643,9.408
		l-83.051,42.124C113.371,193.233,110.302,194.069,107.5,194.069C107.501,194.069,107.501,194.069,107.5,194.069z"/>
	<path d="M108.108,94.022c1.976,0,4.313,0.62,6.757,1.792l82.438,39.534c4.714,2.261,5.943,4.349,6.014,4.736
		c-0.062,0.437-1.244,2.552-5.906,4.917l-83.051,42.124c-2.507,1.271-4.879,1.943-6.859,1.943c-2.424,0-3.547-1.002-4.18-1.757
		c-1.448-1.723-2.246-4.687-2.246-8.345v-74.472C101.074,100.584,101.988,94.022,108.108,94.022 M108.108,84.022
		c-9.995,0-17.034,7.681-17.034,20.474v74.472c0,12.608,6.766,20.102,16.426,20.102c3.479,0,7.333-0.972,11.383-3.025l83.051-42.124
		c15.295-7.758,15.156-20.172-0.307-27.588l-82.438-39.534C115.262,84.914,111.513,84.022,108.108,84.022L108.108,84.022z"/>
</g>
</svg>
