<?xml version="1.0" encoding="utf-8"?>
<!-- Generator: Adobe Illustrator 16.0.0, SVG Export Plug-In . SVG Version: 6.00 Build 0)  -->
<!DOCTYPE svg PUBLIC "-//W3C//DTD SVG 1.1//EN" "http://www.w3.org/Graphics/SVG/1.1/DTD/svg11.dtd">
<svg version="1.1" id="Layer_1" xmlns="http://www.w3.org/2000/svg" xmlns:xlink="http://www.w3.org/1999/xlink" x="0px" y="0px"
	 width="283.465px" height="283.465px" viewBox="0 0 283.465 283.465" enable-background="new 0 0 283.465 283.465"
	 xml:space="preserve">
<g>
	<g>
		<g>
			<path d="M197.717,173.28c21.298,7.458,39.127,19.125,51.719,33.874c13.475,15.786,20.864,34.693,22.01,56.276H12.021
				c1.146-21.583,8.535-40.49,22.01-56.276c12.591-14.75,30.42-26.416,51.718-33.874c15.316,14.078,35.051,21.786,55.984,21.786
				S182.4,187.357,197.717,173.28 M196.185,166.433c-13.914,13.979-33.171,22.633-54.452,22.633s-40.538-8.654-54.452-22.633
				C41.668,181.204,5.863,215.531,5.863,269.43h271.739C277.603,215.531,241.798,181.204,196.185,166.433L196.185,166.433z"/>
		</g>
	</g>
	<g>
		<path d="M141.732,50.232c34.188,0,62.001,27.813,62.001,62s-27.813,62-62.001,62c-34.187,0-62-27.813-62-62
			S107.546,50.232,141.732,50.232 M141.732,44.232c-37.556,0-68,30.445-68,68c0,37.556,30.444,68,68,68s68.001-30.444,68.001-68
			C209.733,74.677,179.288,44.232,141.732,44.232L141.732,44.232z"/>
	</g>
</g>
<text transform="matrix(1 0 0 1 -286.292 -61.8135)" font-family="'MyriadPro-Regular'" font-size="351.36">OFF</text>
</svg>
