<?xml version="1.0" encoding="utf-8"?>
<!-- Generator: Adobe Illustrator 16.0.0, SVG Export Plug-In . SVG Version: 6.00 Build 0)  -->
<!DOCTYPE svg PUBLIC "-//W3C//DTD SVG 1.1//EN" "http://www.w3.org/Graphics/SVG/1.1/DTD/svg11.dtd">
<svg version="1.1" id="Layer_1" xmlns="http://www.w3.org/2000/svg" xmlns:xlink="http://www.w3.org/1999/xlink" x="0px" y="0px"
	 width="283.465px" height="283.465px" viewBox="0 0 283.465 283.465" enable-background="new 0 0 283.465 283.465"
	 xml:space="preserve">
<g>
	<g>
		<path fill="#FFFFFF" d="M145.674,270.22c-30.509,0-55.264-9.37-73.576-27.849c-18.326-18.495-27.619-43.172-27.619-73.345v-54.586
			c0-30.099,8.959-54.774,26.627-73.342c17.837-18.742,40.878-27.852,70.438-27.852c31.538,0,56.115,7.311,73.051,21.73
			c15.862,13.507,23.858,32.462,24.367,57.843h-47.772c-0.831-14.578-4.786-25.553-11.788-32.68
			c-7.964-8.102-20.701-12.209-37.857-12.209c-15.715,0-27.967,6.426-36.415,19.101c-7.937,11.904-11.961,27.734-11.961,47.051
			v54.944c0,19.527,4.435,35.517,13.182,47.524c9.17,12.598,22.4,18.986,39.324,18.986c15.608,0,27.236-4.182,34.563-12.43
			c6.406-7.215,9.899-17.986,10.619-32.818h47.568c-0.491,25.485-8.288,45.108-23.209,58.377
			C199.129,262.967,175.732,270.22,145.674,270.22z"/>
		<path d="M141.544,19.245c30.072,0,53.342,6.83,69.16,20.298c13.192,11.233,20.429,26.766,21.97,47.275h-35.961
			c-1.537-13.398-5.841-23.566-13.034-30.887c-9.133-9.291-23.309-14.002-42.135-14.002c-17.594,0-31.913,7.529-41.407,21.772
			c-8.605,12.907-12.969,29.857-12.969,50.379v54.944c0,20.824,4.822,38.002,14.329,51.053
			c10.218,14.037,25.494,21.457,44.177,21.457c17.396,0,30.535-4.86,39.049-14.446c6.455-7.269,10.317-17.409,11.696-30.802h35.751
			c-1.426,20.94-8.322,36.671-20.941,47.893c-14.955,13.298-37.011,20.04-65.555,20.04c-29.256,0-51.929-8.528-69.314-26.072
			c-17.415-17.576-25.881-40.186-25.881-69.122v-54.586c0-28.909,8.169-51.546,24.973-69.206
			C92.095,27.746,113.714,19.245,141.544,19.245 M141.544,7.245c-31.005,0-55.932,9.906-74.785,29.716
			c-18.854,19.813-28.28,45.639-28.28,77.479v54.586c0,31.961,9.785,57.816,29.357,77.568
			c19.572,19.751,45.518,29.626,77.838,29.626c31.72,0,56.229-7.689,73.528-23.072c17.296-15.381,25.704-37.977,25.228-67.783
			l-0.359-1.077h-59.074c0,16.281-3.083,27.894-9.246,34.834c-6.168,6.944-16.191,10.414-30.076,10.414
			c-14.965,0-26.457-5.504-34.475-16.519c-8.021-11.012-12.031-25.677-12.031-43.991v-54.944c0-18.194,3.65-32.77,10.953-43.723
			c7.301-10.952,17.776-16.429,31.423-16.429c15.56,0,26.754,3.473,33.577,10.414c6.822,6.943,10.234,18.436,10.234,34.475h59.074
			l0.539-1.077c0.477-29.447-8.35-51.892-26.484-67.334C200.349,14.966,174.7,7.245,141.544,7.245L141.544,7.245z"/>
	</g>
</g>
</svg>
